# xmcd
#
# Track frame offsets:
#	150
#	6044
#	9814
#	28019
#	56710
#	115503
#	133974
#	159746
#	200424
#
# Disc length: 2949 seconds
#
# Revision: 0
# Processed by: cddbd v1.5.2PL0 Copyright (c) Steve Scherf et al.
# Submitted via: EZCDAudioConverter 3.1.2.1
#
DISCID=6c0b8309
DTITLE=Stevie Ray Vaughan and Double Trouble - Live... Texas '87 [Disc 1]
DYEAR=2015
DGENRE=Blues
TTITLE0=Radio Intro
TTITLE1=Tuning and Intro
TTITLE2=Scuttle Buttin'
TTITLE3=Say What
TTITLE4=Ain't Gone 'N'Give Up On Love
TTITLE5=Lookin' Out The Window
TTITLE6=Look At Little Sister
TTITLE7=Mary Had A Little Lamb
TTITLE8=Hide Away
EXTD=
EXTT0=
EXTT1=
EXTT2=
EXTT3=
EXTT4=
EXTT5=
EXTT6=
EXTT7=
EXTT8=
PLAYORDER=
